<svg width="90" height="30" viewBox="0 0 90 30" fill="none" xmlns="http://www.w3.org/2000/svg">
<path d="M0.377441 0.621094H1.8536L12.7403 21.2873H11.2641L0.377441 0.621094Z" fill="#2773FF"/>
<path d="M3.32959 0.621094H4.80575L15.6924 21.2873H14.2163L3.32959 0.621094Z" fill="#2773FF"/>
<path d="M6.28223 0.621094H7.75839L18.6451 21.2873H17.1689L6.28223 0.621094Z" fill="#2773FF"/>
<rect x="0.377441" y="0.621094" width="7.3808" height="28.7851" fill="#2773FF"/>
<rect x="22.1509" y="0.621094" width="7.3808" height="28.7851" fill="#1B51B3"/>
<path d="M18.948 20.3616L29.3471 0.621094H27.8709L18.21 18.9605L18.948 20.3616Z" fill="#1B51B3"/>
<path d="M17.472 17.5594L26.3948 0.621094H24.9187L16.7339 16.1583L17.472 17.5594Z" fill="#1B51B3"/>
<path d="M15.9959 14.7572L23.4426 0.621094H21.9664L15.2578 13.3561L15.9959 14.7572Z" fill="#1B51B3"/>
<path d="M32.4839 0.621094H33.96L44.8467 21.2873H43.3706L32.4839 0.621094Z" fill="#2773FF"/>
<path d="M35.436 0.621094H36.9122L47.7989 21.2873H46.3227L35.436 0.621094Z" fill="#2773FF"/>
<path d="M38.3887 0.621094H39.8648L50.7515 21.2873H49.2754L38.3887 0.621094Z" fill="#2773FF"/>
<rect x="32.4839" y="0.621094" width="7.38081" height="28.7851" fill="#2773FF"/>
<rect x="54.2573" y="0.621094" width="7.3808" height="28.7851" fill="#1B51B3"/>
<path d="M51.0545 20.3616L61.4535 0.621094H59.9774L50.3164 18.9605L51.0545 20.3616Z" fill="#1B51B3"/>
<path d="M49.5784 17.5594L58.5013 0.621094H57.0251L48.8403 16.1583L49.5784 17.5594Z" fill="#1B51B3"/>
<path d="M48.1023 14.7572L55.549 0.621094H54.0729L47.3643 13.3561L48.1023 14.7572Z" fill="#1B51B3"/>
<rect x="64.5903" y="0.621094" width="7.38081" height="28.7851" fill="#2773FF"/>
<path d="M75.2926 0.621094C83.2413 0.621094 89.6851 7.06487 89.6851 15.0137C89.6851 22.9625 83.2413 29.4062 75.2926 29.4062H71.9712V27.9301H75.2926C82.4261 27.9301 88.209 22.1472 88.209 15.0137C88.209 7.88013 82.4261 2.09725 75.2926 2.09725H71.9712V0.621094H75.2926Z" fill="#1B51B3"/>
<path d="M74.739 3.57349C81.363 3.57349 86.7328 8.69546 86.7328 15.0137C86.7328 21.332 81.363 26.454 74.739 26.454H71.9712V24.9778H74.739C80.6142 24.9778 85.2566 20.4518 85.2566 15.0137C85.2566 9.57568 80.6142 5.04965 74.739 5.04965H71.9712V3.57349H74.739Z" fill="#1B51B3"/>
<path d="M74.1854 6.52563C79.4846 6.52563 83.7805 10.3258 83.7805 15.0136C83.7805 19.7013 79.4846 23.5015 74.1854 23.5015H71.9712V22.0253H74.1854C78.8447 22.0253 82.3043 18.7212 82.3043 15.0136C82.3043 11.306 78.8447 8.0018 74.1854 8.0018H71.9712V6.52563H74.1854Z" fill="#1B51B3"/>
</svg>
