<svg width="176" height="30" viewBox="0 0 176 30" fill="none" xmlns="http://www.w3.org/2000/svg">
<path d="M12.3021 30C9.93946 30 7.65924 29.7115 5.46144 29.1346C3.29111 28.5302 1.51913 27.761 0.145508 26.8269L2.82408 20.8104C4.11529 21.6346 5.5988 22.3214 7.27463 22.8709C8.97793 23.3929 10.6675 23.6538 12.3433 23.6538C13.4697 23.6538 14.3763 23.5577 15.0631 23.3654C15.7499 23.1456 16.2444 22.8709 16.5466 22.5412C16.8763 22.1841 17.0411 21.772 17.0411 21.3049C17.0411 20.6456 16.7389 20.1236 16.1345 19.739C15.5301 19.3544 14.7472 19.0385 13.7856 18.7912C12.8241 18.544 11.7527 18.2967 10.5713 18.0494C9.41749 17.8022 8.2499 17.4863 7.06858 17.1016C5.91474 16.717 4.85705 16.2225 3.89551 15.6181C2.93397 14.9863 2.151 14.1758 1.54661 13.1868C0.942211 12.1703 0.640013 10.8929 0.640013 9.3544C0.640013 7.62363 1.10705 6.05769 2.04111 4.65659C3.00265 3.2555 4.43122 2.12912 6.32683 1.27747C8.22243 0.425825 10.5851 0 13.4147 0C15.3103 0 17.1647 0.219781 18.9779 0.659342C20.8186 1.07143 22.4532 1.68956 23.8818 2.51374L21.368 8.57143C19.9944 7.82967 18.6345 7.28022 17.2884 6.92308C15.9422 6.53846 14.6373 6.34616 13.3735 6.34616C12.2472 6.34616 11.3406 6.46978 10.6538 6.71703C9.96694 6.93681 9.47243 7.23901 9.17023 7.62363C8.86804 8.00824 8.71694 8.4478 8.71694 8.94231C8.71694 9.57418 9.0054 10.0824 9.58232 10.467C10.1867 10.8242 10.9697 11.1264 11.9312 11.3736C12.9202 11.5934 13.9917 11.8269 15.1455 12.0742C16.3268 12.3214 17.4944 12.6374 18.6483 13.022C19.8296 13.3791 20.901 13.8736 21.8625 14.5055C22.8241 15.1099 23.5933 15.9203 24.1702 16.9368C24.7746 17.9258 25.0768 19.1758 25.0768 20.6868C25.0768 22.3626 24.5961 23.9148 23.6345 25.3434C22.7005 26.7445 21.2856 27.8709 19.39 28.7225C17.5219 29.5742 15.1592 30 12.3021 30Z" fill="#2773FF"/>
<path d="M35.8667 11.7445H49.2596V17.8434H35.8667V11.7445ZM36.4436 23.1181H51.526V29.4231H28.3667V0.576904H50.9903V6.88185H36.4436V23.1181Z" fill="#2773FF"/>
<path d="M55.6758 29.4231V0.576904H62.3928L78.2994 19.7802H75.1263V0.576904H83.1208V29.4231H76.4038L60.4972 10.2198H63.6703V29.4231H55.6758Z" fill="#2773FF"/>
<path d="M98.6576 30C96.2949 30 94.0147 29.7115 91.8169 29.1346C89.6466 28.5302 87.8746 27.761 86.501 26.8269L89.1795 20.8104C90.4708 21.6346 91.9543 22.3214 93.6301 22.8709C95.3334 23.3929 97.023 23.6538 98.6988 23.6538C99.8252 23.6538 100.732 23.5577 101.419 23.3654C102.105 23.1456 102.6 22.8709 102.902 22.5412C103.232 22.1841 103.397 21.772 103.397 21.3049C103.397 20.6456 103.094 20.1236 102.49 19.739C101.886 19.3544 101.103 19.0385 100.141 18.7912C99.1795 18.544 98.1081 18.2967 96.9268 18.0494C95.773 17.8022 94.6054 17.4863 93.4241 17.1016C92.2702 16.717 91.2125 16.2225 90.251 15.6181C89.2894 14.9863 88.5065 14.1758 87.9021 13.1868C87.2977 12.1703 86.9955 10.8929 86.9955 9.3544C86.9955 7.62363 87.4625 6.05769 88.3966 4.65659C89.3581 3.2555 90.7867 2.12912 92.6823 1.27747C94.5779 0.425825 96.9405 0 99.7702 0C101.666 0 103.52 0.219781 105.333 0.659342C107.174 1.07143 108.809 1.68956 110.237 2.51374L107.724 8.57143C106.35 7.82967 104.99 7.28022 103.644 6.92308C102.298 6.53846 100.993 6.34616 99.729 6.34616C98.6026 6.34616 97.696 6.46978 97.0092 6.71703C96.3224 6.93681 95.8279 7.23901 95.5257 7.62363C95.2235 8.00824 95.0724 8.4478 95.0724 8.94231C95.0724 9.57418 95.3609 10.0824 95.9378 10.467C96.5422 10.8242 97.3252 11.1264 98.2867 11.3736C99.2757 11.5934 100.347 11.8269 101.501 12.0742C102.682 12.3214 103.85 12.6374 105.004 13.022C106.185 13.3791 107.256 13.8736 108.218 14.5055C109.18 15.1099 109.949 15.9203 110.526 16.9368C111.13 17.9258 111.432 19.1758 111.432 20.6868C111.432 22.3626 110.952 23.9148 109.99 25.3434C109.056 26.7445 107.641 27.8709 105.745 28.7225C103.877 29.5742 101.515 30 98.6576 30Z" fill="#2773FF"/>
<path d="M129.268 30C126.961 30 124.832 29.6291 122.881 28.8874C120.931 28.1456 119.227 27.1016 117.771 25.7555C116.343 24.3819 115.23 22.7885 114.433 20.9753C113.637 19.1621 113.238 17.1703 113.238 15C113.238 12.8297 113.637 10.8379 114.433 9.02472C115.23 7.21154 116.343 5.63187 117.771 4.28572C119.227 2.91209 120.931 1.8544 122.881 1.11264C124.832 0.370879 126.961 0 129.268 0C131.604 0 133.733 0.370879 135.656 1.11264C137.606 1.8544 139.296 2.91209 140.725 4.28572C142.153 5.63187 143.266 7.21154 144.062 9.02472C144.887 10.8379 145.299 12.8297 145.299 15C145.299 17.1703 144.887 19.1758 144.062 21.0165C143.266 22.8297 142.153 24.4093 140.725 25.7555C139.296 27.1016 137.606 28.1456 135.656 28.8874C133.733 29.6291 131.604 30 129.268 30ZM129.268 23.2418C130.367 23.2418 131.384 23.0494 132.318 22.6648C133.279 22.2802 134.104 21.7308 134.79 21.0165C135.505 20.2747 136.054 19.3956 136.439 18.3791C136.851 17.3626 137.057 16.2363 137.057 15C137.057 13.7363 136.851 12.6099 136.439 11.6209C136.054 10.6044 135.505 9.73901 134.79 9.02472C134.104 8.28297 133.279 7.71978 132.318 7.33517C131.384 6.95055 130.367 6.75824 129.268 6.75824C128.17 6.75824 127.139 6.95055 126.178 7.33517C125.244 7.71978 124.42 8.28297 123.705 9.02472C123.019 9.73901 122.469 10.6044 122.057 11.6209C121.672 12.6099 121.48 13.7363 121.48 15C121.48 16.2363 121.672 17.3626 122.057 18.3791C122.469 19.3956 123.019 20.2747 123.705 21.0165C124.42 21.7308 125.244 22.2802 126.178 22.6648C127.139 23.0494 128.17 23.2418 129.268 23.2418Z" fill="#1B51B3"/>
<path d="M149.043 29.4231V0.576904H162.23C164.867 0.576904 167.134 1.00273 169.029 1.85438C170.952 2.70603 172.436 3.94229 173.48 5.56317C174.524 7.15658 175.046 9.05218 175.046 11.25C175.046 13.4203 174.524 15.3022 173.48 16.8956C172.436 18.4615 170.952 19.6703 169.029 20.522C167.134 21.3461 164.867 21.7582 162.23 21.7582H153.576L157.202 18.3379V29.4231H149.043ZM166.886 29.4231L159.716 18.9148H168.411L175.623 29.4231H166.886ZM157.202 19.2033L153.576 15.4533H161.735C163.439 15.4533 164.702 15.0824 165.526 14.3406C166.378 13.5989 166.804 12.5687 166.804 11.25C166.804 9.90383 166.378 8.85987 165.526 8.11811C164.702 7.37636 163.439 7.00548 161.735 7.00548H153.576L157.202 3.25548V19.2033Z" fill="#2773FF"/>
</svg>
