<svg width="356" height="70" viewBox="0 0 356 70" fill="none" xmlns="http://www.w3.org/2000/svg">
<path d="M40.3774 20.6211H41.8536L52.7403 41.2873H51.2641L40.3774 20.6211Z" fill="#2773FF"/>
<path d="M43.3296 20.6211H44.8058L55.6924 41.2873H54.2163L43.3296 20.6211Z" fill="#2773FF"/>
<path d="M46.2822 20.6211H47.7584L58.6451 41.2873H57.1689L46.2822 20.6211Z" fill="#2773FF"/>
<rect x="40.3774" y="20.6211" width="7.3808" height="28.7851" fill="#2773FF"/>
<rect x="62.1509" y="20.6211" width="7.3808" height="28.7851" fill="#1B51B3"/>
<path d="M58.948 40.3616L69.3471 20.6211H67.8709L58.21 38.9605L58.948 40.3616Z" fill="#1B51B3"/>
<path d="M57.472 37.5594L66.3948 20.6211H64.9187L56.7339 36.1583L57.472 37.5594Z" fill="#1B51B3"/>
<path d="M55.9959 34.7572L63.4426 20.6211H61.9664L55.2578 33.3561L55.9959 34.7572Z" fill="#1B51B3"/>
<path d="M72.4839 20.6211H73.96L84.8467 41.2873H83.3706L72.4839 20.6211Z" fill="#2773FF"/>
<path d="M75.436 20.6211H76.9122L87.7989 41.2873H86.3227L75.436 20.6211Z" fill="#2773FF"/>
<path d="M78.3887 20.6211H79.8648L90.7515 41.2873H89.2754L78.3887 20.6211Z" fill="#2773FF"/>
<rect x="72.4839" y="20.6211" width="7.38081" height="28.7851" fill="#2773FF"/>
<rect x="94.2573" y="20.6211" width="7.3808" height="28.7851" fill="#1B51B3"/>
<path d="M91.0545 40.3616L101.454 20.6211H99.9774L90.3164 38.9605L91.0545 40.3616Z" fill="#1B51B3"/>
<path d="M89.5784 37.5594L98.5013 20.6211H97.0251L88.8403 36.1583L89.5784 37.5594Z" fill="#1B51B3"/>
<path d="M88.1023 34.7572L95.549 20.6211H94.0729L87.3643 33.3561L88.1023 34.7572Z" fill="#1B51B3"/>
<rect x="104.59" y="20.6211" width="7.38081" height="28.7851" fill="#2773FF"/>
<path d="M115.293 20.6211C123.241 20.6211 129.685 27.0649 129.685 35.0137C129.685 42.9625 123.241 49.4062 115.293 49.4062H111.971V47.9301H115.293C122.426 47.9301 128.209 42.1472 128.209 35.0137C128.209 27.8801 122.426 22.0973 115.293 22.0973H111.971V20.6211H115.293Z" fill="#1B51B3"/>
<path d="M114.739 23.5735C121.363 23.5735 126.733 28.6955 126.733 35.0137C126.733 41.332 121.363 46.454 114.739 46.454H111.971V44.9778H114.739C120.614 44.9778 125.257 40.4518 125.257 35.0137C125.257 29.5757 120.614 25.0496 114.739 25.0496H111.971V23.5735H114.739Z" fill="#1B51B3"/>
<path d="M114.185 26.5256C119.485 26.5256 123.78 30.3258 123.78 35.0136C123.78 39.7013 119.485 43.5015 114.185 43.5015H111.971V42.0253H114.185C118.845 42.0253 122.304 38.7212 122.304 35.0136C122.304 31.306 118.845 28.0018 114.185 28.0018H111.971V26.5256H114.185Z" fill="#1B51B3"/>
<path d="M152.302 50C149.939 50 147.659 49.7115 145.461 49.1346C143.291 48.5302 141.519 47.761 140.146 46.8269L142.824 40.8104C144.115 41.6346 145.599 42.3214 147.275 42.8709C148.978 43.3929 150.667 43.6538 152.343 43.6538C153.47 43.6538 154.376 43.5577 155.063 43.3654C155.75 43.1456 156.244 42.8709 156.547 42.5412C156.876 42.1841 157.041 41.772 157.041 41.3049C157.041 40.6456 156.739 40.1236 156.135 39.739C155.53 39.3544 154.747 39.0385 153.786 38.7912C152.824 38.544 151.753 38.2967 150.571 38.0494C149.417 37.8022 148.25 37.4863 147.069 37.1016C145.915 36.717 144.857 36.2225 143.896 35.6181C142.934 34.9863 142.151 34.1758 141.547 33.1868C140.942 32.1703 140.64 30.8929 140.64 29.3544C140.64 27.6236 141.107 26.0577 142.041 24.6566C143.003 23.2555 144.431 22.1291 146.327 21.2775C148.222 20.4258 150.585 20 153.415 20C155.31 20 157.165 20.2198 158.978 20.6593C160.819 21.0714 162.453 21.6896 163.882 22.5137L161.368 28.5714C159.994 27.8297 158.635 27.2802 157.288 26.9231C155.942 26.5385 154.637 26.3462 153.374 26.3462C152.247 26.3462 151.341 26.4698 150.654 26.717C149.967 26.9368 149.472 27.239 149.17 27.6236C148.868 28.0082 148.717 28.4478 148.717 28.9423C148.717 29.5742 149.005 30.0824 149.582 30.467C150.187 30.8242 150.97 31.1264 151.931 31.3736C152.92 31.5934 153.992 31.8269 155.146 32.0742C156.327 32.3214 157.494 32.6374 158.648 33.022C159.83 33.3791 160.901 33.8736 161.863 34.5055C162.824 35.1099 163.593 35.9203 164.17 36.9368C164.775 37.9258 165.077 39.1758 165.077 40.6868C165.077 42.3626 164.596 43.9148 163.635 45.3434C162.7 46.7445 161.286 47.8709 159.39 48.7225C157.522 49.5742 155.159 50 152.302 50Z" fill="#2773FF"/>
<path d="M175.867 31.7445H189.26V37.8434H175.867V31.7445ZM176.444 43.1181H191.526V49.4231H168.367V20.5769H190.99V26.8818H176.444V43.1181Z" fill="#2773FF"/>
<path d="M195.676 49.4231V20.5769H202.393L218.299 39.7802H215.126V20.5769H223.121V49.4231H216.404L200.497 30.2198H203.67V49.4231H195.676Z" fill="#2773FF"/>
<path d="M238.658 50C236.295 50 234.015 49.7115 231.817 49.1346C229.647 48.5302 227.875 47.761 226.501 46.8269L229.18 40.8104C230.471 41.6346 231.954 42.3214 233.63 42.8709C235.333 43.3929 237.023 43.6538 238.699 43.6538C239.825 43.6538 240.732 43.5577 241.419 43.3654C242.105 43.1456 242.6 42.8709 242.902 42.5412C243.232 42.1841 243.397 41.772 243.397 41.3049C243.397 40.6456 243.094 40.1236 242.49 39.739C241.886 39.3544 241.103 39.0385 240.141 38.7912C239.18 38.544 238.108 38.2967 236.927 38.0494C235.773 37.8022 234.605 37.4863 233.424 37.1016C232.27 36.717 231.213 36.2225 230.251 35.6181C229.289 34.9863 228.506 34.1758 227.902 33.1868C227.298 32.1703 226.995 30.8929 226.995 29.3544C226.995 27.6236 227.463 26.0577 228.397 24.6566C229.358 23.2555 230.787 22.1291 232.682 21.2775C234.578 20.4258 236.941 20 239.77 20C241.666 20 243.52 20.2198 245.333 20.6593C247.174 21.0714 248.809 21.6896 250.237 22.5137L247.724 28.5714C246.35 27.8297 244.99 27.2802 243.644 26.9231C242.298 26.5385 240.993 26.3462 239.729 26.3462C238.603 26.3462 237.696 26.4698 237.009 26.717C236.322 26.9368 235.828 27.239 235.526 27.6236C235.224 28.0082 235.072 28.4478 235.072 28.9423C235.072 29.5742 235.361 30.0824 235.938 30.467C236.542 30.8242 237.325 31.1264 238.287 31.3736C239.276 31.5934 240.347 31.8269 241.501 32.0742C242.682 32.3214 243.85 32.6374 245.004 33.022C246.185 33.3791 247.256 33.8736 248.218 34.5055C249.18 35.1099 249.949 35.9203 250.526 36.9368C251.13 37.9258 251.432 39.1758 251.432 40.6868C251.432 42.3626 250.952 43.9148 249.99 45.3434C249.056 46.7445 247.641 47.8709 245.745 48.7225C243.877 49.5742 241.515 50 238.658 50Z" fill="#2773FF"/>
<path d="M269.268 50C266.961 50 264.832 49.6291 262.881 48.8874C260.931 48.1456 259.227 47.1016 257.771 45.7555C256.343 44.3819 255.23 42.7885 254.433 40.9753C253.637 39.1621 253.238 37.1703 253.238 35C253.238 32.8297 253.637 30.8379 254.433 29.0247C255.23 27.2115 256.343 25.6319 257.771 24.2857C259.227 22.9121 260.931 21.8544 262.881 21.1126C264.832 20.3709 266.961 20 269.268 20C271.604 20 273.733 20.3709 275.656 21.1126C277.606 21.8544 279.296 22.9121 280.725 24.2857C282.153 25.6319 283.266 27.2115 284.062 29.0247C284.887 30.8379 285.299 32.8297 285.299 35C285.299 37.1703 284.887 39.1758 284.062 41.0165C283.266 42.8297 282.153 44.4093 280.725 45.7555C279.296 47.1016 277.606 48.1456 275.656 48.8874C273.733 49.6291 271.604 50 269.268 50ZM269.268 43.2418C270.367 43.2418 271.384 43.0494 272.318 42.6648C273.279 42.2802 274.104 41.7308 274.79 41.0165C275.505 40.2747 276.054 39.3956 276.439 38.3791C276.851 37.3626 277.057 36.2363 277.057 35C277.057 33.7363 276.851 32.6099 276.439 31.6209C276.054 30.6044 275.505 29.739 274.79 29.0247C274.104 28.283 273.279 27.7198 272.318 27.3352C271.384 26.9506 270.367 26.7582 269.268 26.7582C268.17 26.7582 267.139 26.9506 266.178 27.3352C265.244 27.7198 264.42 28.283 263.705 29.0247C263.019 29.739 262.469 30.6044 262.057 31.6209C261.672 32.6099 261.48 33.7363 261.48 35C261.48 36.2363 261.672 37.3626 262.057 38.3791C262.469 39.3956 263.019 40.2747 263.705 41.0165C264.42 41.7308 265.244 42.2802 266.178 42.6648C267.139 43.0494 268.17 43.2418 269.268 43.2418Z" fill="#1B51B3"/>
<path d="M289.043 49.4231V20.5769H302.23C304.867 20.5769 307.134 21.0027 309.029 21.8544C310.952 22.706 312.436 23.9423 313.48 25.5632C314.524 27.1566 315.046 29.0522 315.046 31.25C315.046 33.4203 314.524 35.3022 313.48 36.8956C312.436 38.4615 310.952 39.6703 309.029 40.522C307.134 41.3461 304.867 41.7582 302.23 41.7582H293.576L297.202 38.3379V49.4231H289.043ZM306.886 49.4231L299.716 38.9148H308.411L315.623 49.4231H306.886ZM297.202 39.2033L293.576 35.4533H301.735C303.439 35.4533 304.702 35.0824 305.526 34.3406C306.378 33.5989 306.804 32.5687 306.804 31.25C306.804 29.9038 306.378 28.8599 305.526 28.1181C304.702 27.3764 303.439 27.0055 301.735 27.0055H293.576L297.202 23.2555V39.2033Z" fill="#2773FF"/>
</svg>
